M48
; DRILL file {KiCad 8.0.2} date 2024-11-07T23:12:16+0530
; FORMAT={-:-/ absolute / inch / decimal}
; #@! TF.CreationDate,2024-11-07T23:12:16+05:30
; #@! TF.GenerationSoftware,Kicad,Pcbnew,8.0.2
; #@! TF.FileFunction,Plated,1,2,PTH
FMAT,2
INCH
; #@! TA.AperFunction,Plated,PTH,ComponentDrill
T1C0.0394
%
G90
G05
T1
X3.5406Y-3.065
X3.5406Y-3.2815
X3.6406Y-3.065
X3.6406Y-3.2815
X4.0602Y-3.065
X4.0602Y-3.2815
X4.1602Y-3.065
X4.1602Y-3.2815
X4.2717Y-2.8504
X4.3717Y-2.8504
X4.4717Y-2.8504
X4.5248Y-3.065
X4.5248Y-3.2815
X4.5717Y-2.8504
X4.6248Y-3.065
X4.6248Y-3.2815
X4.6717Y-2.8504
X4.7717Y-2.8504
X4.8717Y-2.8504
X4.9894Y-3.065
X4.9894Y-3.2815
X5.0894Y-3.065
X5.0894Y-3.2815
X5.5091Y-3.065
X5.5091Y-3.2815
X5.6091Y-3.065
X5.6091Y-3.2815
M30
