<svg width="200" height="105" viewBox="0 0 200 105" fill="none" xmlns="http://www.w3.org/2000/svg">
<g clip-path="url(#clip0_1867_11792)">
<path d="M13.7839 53.2566V27.8021V2.34766H2.15625V63.9984H45.4893V53.2566H13.7839Z" fill="#F7921E" stroke="#F7921E" stroke-width="0.385149" stroke-miterlimit="10"/>
<path d="M53.7734 2.34766V63.9984H65.3279V2.34766H53.7734Z" fill="#F7921E" stroke="#F7921E" stroke-width="0.385149" stroke-miterlimit="10"/>
<path d="M187.731 2.25781V40.5686L157.52 2.3464H148.1V63.9972H159.723V22.4242L192.137 64.0857V63.9972H199.359V2.25781H187.731Z" fill="#F7921E" stroke="#F7921E" stroke-width="0.385149" stroke-miterlimit="10"/>
<path d="M74.0662 28.3711C74.0239 28.6407 73.9892 28.9103 73.9622 29.1838C73.9622 29.2338 73.9622 29.2877 73.943 29.3417V29.3032C73.9409 29.2788 73.9409 29.2543 73.943 29.23C73.9815 28.945 74.0239 28.66 74.0662 28.3711Z" fill="white" stroke="#F7921E" stroke-width="0.385149" stroke-miterlimit="10"/>
<path d="M73.7894 31.0039C73.7894 31.1002 73.7894 31.1965 73.7894 31.2928C73.7894 31.4776 73.7702 31.6779 73.7625 31.8474C73.7586 31.5855 73.7702 31.2851 73.7894 31.0039Z" fill="url(#paint0_linear_1867_11792)" stroke="#F7921E" stroke-width="0.385149" stroke-miterlimit="10"/>
<path d="M74.0662 28.3711C74.0239 28.6407 73.9892 28.9103 73.9622 29.1838C73.9622 29.2338 73.9622 29.2877 73.943 29.3417V29.3032C73.9409 29.2788 73.9409 29.2543 73.943 29.23C73.9815 28.945 74.0239 28.66 74.0662 28.3711Z" fill="url(#paint1_linear_1867_11792)" stroke="#F7921E" stroke-width="0.385149" stroke-miterlimit="10"/>
<path d="M101.781 5.78173C101.626 5.7068 101.468 5.63992 101.307 5.58135L101.172 5.53125C101.407 5.61988 101.642 5.72007 101.881 5.82797L101.781 5.78173Z" fill="url(#paint2_linear_1867_11792)" stroke="#F7921E" stroke-width="0.385149" stroke-miterlimit="10"/>
<path d="M115.273 65.1602C114.622 65.3507 113.959 65.4986 113.289 65.6031C113.949 65.4798 114.61 65.3322 115.273 65.1602Z" fill="url(#paint3_linear_1867_11792)" stroke="#F7921E" stroke-width="0.385149" stroke-miterlimit="10"/>
<path d="M79.7229 14.3516L79.1875 15.1219C79.4109 14.8137 79.5919 14.5518 79.7229 14.3516Z" fill="white" stroke="#F7921E" stroke-width="0.385149" stroke-miterlimit="10"/>
<path d="M114.792 45.2063C109.299 42.6375 104.17 39.3518 99.5404 35.435C99.5944 35.6931 100.696 40.7925 105.479 45.861C105.865 46.2731 106.273 46.6737 106.704 47.0781C106.916 47.2784 107.139 47.4632 107.371 47.6751C107.602 47.8869 107.86 48.0949 108.118 48.3067C108.376 48.5185 108.557 48.6649 108.784 48.8382C109.119 49.0924 109.458 49.3389 109.816 49.5854L110.444 50.0091C110.76 50.217 111.079 50.4212 111.407 50.6214L111.488 50.6715C111.796 50.8564 112.112 51.0336 112.424 51.2069C112.628 51.3224 112.84 51.438 113.055 51.5458C113.356 51.7114 113.668 51.8616 113.987 52.0195C114.646 52.3354 115.335 52.6473 116.056 52.94L116.552 53.1326C116.71 53.1942 116.864 53.2559 117.03 53.3136C117.311 53.4176 117.608 53.5255 117.908 53.6256C118.209 53.7257 118.509 53.8297 118.821 53.926C119.006 53.9915 119.183 54.0493 119.376 54.0993C119.568 54.1494 119.738 54.211 119.93 54.265C117.599 54.4058 115.261 54.1849 112.998 53.6102C112.79 53.564 112.578 53.5139 112.362 53.4484C112.146 53.383 111.938 53.329 111.715 53.2674C111.492 53.2058 111.28 53.1365 111.056 53.0633L110.325 52.8168C110.024 52.709 109.716 52.5896 109.408 52.4625C108.412 52.0645 107.443 51.6014 106.508 51.0759C106.2 50.9103 105.895 50.7293 105.595 50.5367C105.426 50.4443 105.275 50.3403 105.11 50.2286C104.624 49.9205 104.139 49.5892 103.658 49.2118C103.41 49.0378 103.171 48.8514 102.941 48.6533C102.649 48.4222 102.356 48.1835 102.079 47.9216C101.801 47.6597 101.574 47.4709 101.328 47.236C101.081 47.0011 100.819 46.7353 100.557 46.4657C100.43 46.327 100.288 46.1961 100.172 46.0459C100.057 45.8957 99.8486 45.6992 99.6984 45.5221C96.9831 42.4409 94.5489 38.2659 92.8081 32.635C92.1069 36.5813 92.2804 40.6334 93.3164 44.5053C94.857 50.1978 98.6854 56.6721 107.721 60.8703C110.417 62.5225 110.128 63.7127 110.733 65.9003C110.733 65.9003 111.865 65.8271 113.182 65.6153C110.727 66.044 108.232 66.2042 105.741 66.0929C102.96 65.9813 100.196 65.5851 97.4953 64.9105L97.3952 64.8835L97.2912 64.8527L97.2026 64.8296L97.0139 64.7757H96.9677H96.9445C93.5085 63.6341 90.2802 61.9432 87.3852 59.7687C82.4007 55.9472 78.4839 50.9069 76.0117 45.1331C77.248 39.3327 78.8156 34.8881 80.5103 31.495C82.5978 27.3161 84.8663 24.7164 86.9345 23.0987L88.2672 20.3642L89.1299 19.5284L91.5871 18.8737L94.391 18.5963C90.7536 18.0887 87.0484 18.7239 83.7879 20.4142C84.4811 18.1457 94.3949 16.2123 94.3949 16.2123C91.8914 15.4728 88.9335 15.8464 86.3876 16.5011C85.3708 16.7669 84.4272 17.075 83.5953 17.3793C83.5221 17.4062 83.4528 17.4255 83.3873 17.4563C82.4707 17.7914 81.7081 18.1226 81.1958 18.3576L81.0071 18.4423C80.9108 18.4885 80.8338 18.527 80.7606 18.554C80.7362 18.5725 80.7089 18.5869 80.6797 18.5963L80.4525 18.708C80.5098 18.6338 80.5716 18.5631 80.6374 18.4962C80.699 18.423 80.7645 18.3537 80.8376 18.2805C81.0583 18.062 81.2924 17.8575 81.5386 17.6681C81.6233 17.5988 81.7081 17.5295 81.7967 17.4679C82.1667 17.1891 82.5525 16.9319 82.9521 16.6976L83.2718 16.5165C83.7224 16.27 84.2077 16.0274 84.7122 15.8002C84.8624 15.7347 85.0126 15.6615 85.1706 15.596C85.4902 15.4651 85.8099 15.3303 86.1411 15.2109L86.5263 15.0607C86.7882 14.9605 87.0462 14.8643 87.3158 14.7718C87.4506 14.7295 87.5816 14.6794 87.701 14.6332L88.2171 14.4637C91.8854 13.3239 95.6346 12.4626 99.4326 11.8871L90.7244 12.3261L80.9108 12.8037C80.6451 13.1426 80.3793 13.4816 80.1405 13.8244C81.2076 12.3118 82.4034 10.8943 83.7147 9.58772C83.9496 9.35278 84.1653 9.1448 84.3502 8.96378L84.4157 8.90215L84.5274 8.80202C84.9626 8.41687 85.2245 8.18578 85.2245 8.18578C85.2245 8.18578 85.2245 8.16652 85.2514 8.15882C86.2434 7.27591 87.3033 6.47232 88.4212 5.75549L88.6947 5.58217C90.4525 4.45986 92.3058 3.49455 94.2331 2.69741L94.3178 2.66275L94.3756 2.63964H94.4103C94.6414 2.5472 94.8724 2.46632 95.1035 2.38159L95.4271 2.27375L95.7082 2.17746C96.7751 1.83083 97.8766 1.54196 98.9512 1.30702H98.9897H99.0436H99.0629C99.7215 1.16067 100.365 1.03357 100.989 0.921875C104.879 2.86302 107.139 5.0083 108.41 6.93404C110.798 10.566 109.797 13.5239 109.797 13.5239L122.773 21.5697L112.843 11.8871C112.843 11.8871 112.358 9.75333 111.584 7.34615C116.019 8.18293 120.163 10.1475 123.618 13.0506C127.073 15.9538 129.723 19.6977 131.311 23.9218C132.9 28.1459 133.374 32.7079 132.688 37.1683C132.002 41.6288 130.179 45.8374 127.394 49.389C123.046 48.4885 118.816 47.0848 114.792 45.2063Z" fill="white" stroke="#F7921E" stroke-width="0.385149" stroke-miterlimit="10"/>
<path d="M113.998 38.0334C113.998 38.0334 126.762 36.878 127.178 30.473C127.178 30.473 124.255 27.4611 124.255 26.6638C124.255 26.6638 123.792 24.9037 127.482 25.3004C131.172 25.6971 130.652 28.8823 130.652 28.8823C130.652 28.8823 128.749 30.9274 128.98 32.807C128.98 32.807 129.612 36.6584 128.172 39.4546C128.172 39.4546 127.251 40.5369 126.631 38.2992L113.998 38.0334Z" fill="url(#paint4_linear_1867_11792)" stroke="#F7921E" stroke-width="0.385149" stroke-miterlimit="10"/>
<path d="M108.336 21.038L114.387 20.4141V22.7404L108.336 21.038Z" fill="url(#paint5_linear_1867_11792)" stroke="#F7921E" stroke-width="0.385149" stroke-miterlimit="10"/>
<path d="M94.3955 16.208C91.8921 15.4685 88.9341 15.8421 86.3883 16.4969C85.3715 16.7626 84.4279 17.0708 83.596 17.375C83.5228 17.402 83.4535 17.4212 83.388 17.4521C82.4713 17.7871 81.7087 18.1184 81.1965 18.3533L81.0078 18.438C80.9115 18.4843 80.8344 18.5228 80.7613 18.5497C80.7369 18.5683 80.7095 18.5826 80.6804 18.5921L80.4531 18.7038C80.5105 18.6296 80.5722 18.5588 80.638 18.492C80.6996 18.4188 80.7651 18.3495 80.8383 18.2763C81.059 18.0578 81.2931 17.8532 81.5393 17.6639C81.624 17.5946 81.7087 17.5252 81.7973 17.4636C82.1673 17.1848 82.5531 16.9277 82.9528 16.6933L83.2724 16.5123C83.7231 16.2658 84.2083 16.0232 84.7129 15.7959C84.8631 15.7304 85.0133 15.6573 85.1712 15.5918C85.4909 15.4608 85.8106 15.326 86.1418 15.2066L86.5269 15.0564C86.7888 14.9563 87.0469 14.86 87.3165 14.7676C87.4513 14.7252 87.5822 14.6751 87.7016 14.6289L88.2177 14.4595C91.8861 13.3197 95.6353 12.4583 99.4333 11.8828L90.7251 12.3257L80.9115 12.8033C80.6457 13.1422 80.38 13.4812 80.1412 13.824C80.1412 13.824 80.1412 13.8432 80.1219 13.8548L80.0564 13.9395L79.7637 14.3247L79.2284 15.095L78.9511 15.5263C78.8201 15.7266 78.6853 15.9384 78.5428 16.1695C78.485 16.262 78.4273 16.3582 78.3695 16.4622C77.3264 18.2153 76.4373 20.0555 75.712 21.9622L75.5386 22.4397V22.4667C75.3961 22.8865 75.2575 23.3025 75.1304 23.7184L74.9725 24.2576C74.9186 24.4425 74.8685 24.6428 74.8184 24.8123C74.7683 24.9817 74.726 25.1974 74.6836 25.3669C74.595 25.7135 74.518 26.064 74.4448 26.4068C74.3909 26.6725 74.337 26.9344 74.2908 27.2002C74.2599 27.3581 74.233 27.516 74.2099 27.6701C74.208 27.7034 74.208 27.7368 74.2099 27.7702C74.1791 27.9589 74.1483 28.1553 74.1213 28.3402C74.0789 28.6098 74.0443 28.8794 74.0173 29.1529C74.0173 29.2029 74.0173 29.2569 73.998 29.3108V29.2723C73.9287 29.8346 73.8787 30.3931 73.8478 30.9361C73.8478 30.8706 73.8478 30.7975 73.8478 30.7281C73.8478 30.9053 73.8209 31.0825 73.8093 31.2596C73.7978 31.4368 73.7901 31.6448 73.7824 31.8143C73.7747 31.9837 73.7824 32.261 73.7631 32.4883C73.7631 32.989 73.7631 33.4819 73.7631 33.9672C73.7613 34.0019 73.7613 34.0366 73.7631 34.0712C73.7631 34.3331 73.7631 34.5835 73.7862 34.8415L73.844 35.6811C73.8671 35.9585 73.8941 36.2319 73.921 36.5054C73.921 36.644 73.948 36.7827 73.9634 36.9213C74.0019 37.2603 74.0481 37.5915 74.0943 37.9189C74.1406 38.2462 74.1906 38.5621 74.2445 38.8663L74.3023 39.1937C74.6461 41.1969 75.2052 43.1571 75.97 45.0403V45.0711C75.97 45.0441 75.97 45.0171 75.9893 44.9902C77.2256 39.1898 78.7932 34.7452 80.4878 31.3521C82.5753 27.1732 84.8438 24.5735 86.9121 22.9558L86.9737 22.9058L87.0045 22.8827L87.3434 22.6208C88.4989 21.7426 91.5801 19.5396 94.3455 18.5497C90.7184 18.066 87.0306 18.7172 83.7885 20.4139C84.4818 18.1415 94.3955 16.208 94.3955 16.208ZM74.5296 40.4724V40.5109C74.5274 40.5391 74.5274 40.5674 74.5296 40.5956C74.5488 40.5533 74.5411 40.5109 74.5296 40.4724Z" fill="#F7921E" stroke="#F7921E" stroke-width="0.385149" stroke-miterlimit="10"/>
<path d="M94.5079 5.17516C94.5909 5.18716 94.6745 5.1936 94.7583 5.19442L95.0048 5.22523C95.1511 5.22523 95.2859 5.22523 95.4285 5.25989L95.8329 5.32152L96.0447 5.34847C96.1179 5.34847 96.1987 5.37929 96.2758 5.38699C96.6109 5.44476 96.9267 5.51024 97.2348 5.58727L97.6739 5.70281L97.9743 5.78754L98.4134 5.9339C98.4294 5.92727 98.4474 5.92727 98.4634 5.9339C98.6211 5.98147 98.7755 6.03937 98.9256 6.10722L99.2299 6.22276L99.7421 6.45L100.066 6.61561C100.193 6.67339 100.316 6.73886 100.451 6.80819L100.79 7.00847C101.007 7.13197 101.218 7.26696 101.421 7.41287C102.901 8.38012 104.097 9.72244 104.888 11.3029C102.567 10.0569 100.09 9.12559 97.5237 8.53365C89.786 6.78123 84.4517 9.19226 83.7161 9.55045L83.666 9.58126C83.9549 9.3001 84.2437 9.02279 84.5403 8.75319C84.9755 8.36804 85.2374 8.13695 85.2374 8.13695C85.2374 8.13695 85.2374 8.11769 85.2644 8.10999C86.2733 7.24785 87.3317 6.44537 88.4342 5.70666L88.7076 5.53335C90.4636 4.42888 92.313 3.48036 94.2345 2.69865L94.3192 2.66399L94.377 2.64088H94.4117C94.6427 2.54844 94.8738 2.46756 95.1049 2.38283L95.4285 2.27114L95.7096 2.1787C96.7707 1.81888 97.8539 1.52812 98.9526 1.30827L99.0835 1.28516C103.312 2.21722 105.527 4.6244 106.702 6.89292C107.488 8.44105 107.93 10.1414 107.996 11.8767C106.981 10.0003 105.585 8.35653 103.898 7.05083C103.819 6.98281 103.736 6.921 103.648 6.86596L103.447 6.72346L103.062 6.46926L102.677 6.24202C102.531 6.15344 102.388 6.08796 102.246 6.01093C102.103 5.9339 102.003 5.88383 101.887 5.83761L101.787 5.79525C101.633 5.72036 101.475 5.65351 101.314 5.59497C101.27 5.57305 101.225 5.555 101.179 5.54105L100.948 5.45247C100.803 5.39634 100.655 5.34876 100.505 5.30996C100.061 5.17221 99.61 5.06287 99.1528 4.98258C99.0065 4.95562 98.864 4.93637 98.733 4.91711C98.6021 4.89785 98.5096 4.8863 98.3941 4.87859C98.2957 4.86643 98.1967 4.86 98.0975 4.85934C97.9974 4.85934 97.905 4.85934 97.8087 4.85934C97.7129 4.84717 97.6164 4.84074 97.5198 4.84008C96.5047 4.79881 95.4892 4.91179 94.5079 5.17516Z" fill="#F7921E" stroke="#F7921E" stroke-width="0.385149" stroke-miterlimit="10"/>
<path d="M139.686 33.1756C139.681 38.7328 138.274 44.199 135.596 49.0683C132.918 53.9377 129.055 58.053 124.365 61.0334C121.035 63.3856 117.217 64.955 113.196 65.6243C111.89 65.8708 110.762 65.9633 110.762 65.9633V65.9055C110.157 63.7179 110.438 62.5278 107.75 60.8755C98.7141 56.6773 94.8703 50.203 93.3451 44.5105C92.3021 40.6388 92.122 36.5853 92.8174 32.6364C94.5583 38.2672 96.9924 42.4307 99.7077 45.5234C99.858 45.7006 100.012 45.8778 100.181 46.0472C100.351 46.2167 100.447 46.3284 100.567 46.4671C100.821 46.729 101.071 46.987 101.337 47.2374C101.603 47.4877 101.834 47.7034 102.088 47.9229C102.342 48.1425 102.658 48.4236 102.951 48.6547C103.18 48.8527 103.419 49.0391 103.667 49.2132C104.149 49.5983 104.634 49.9218 105.119 50.23C105.285 50.3417 105.435 50.4456 105.604 50.5381C105.905 50.7307 106.209 50.9232 106.517 51.0773C107.452 51.6027 108.421 52.0659 109.417 52.4638C109.725 52.5909 110.034 52.7103 110.334 52.8182L111.066 53.0647C111.289 53.1378 111.509 53.2033 111.724 53.2688C111.94 53.3343 112.163 53.3959 112.371 53.4498C112.579 53.5037 112.799 53.5653 113.007 53.6116C115.27 54.1863 117.609 54.4071 119.94 54.2663C119.747 54.2124 119.554 54.1585 119.385 54.1007C119.216 54.0429 119 53.9929 118.83 53.9274C118.518 53.8311 118.222 53.7387 117.918 53.627C117.613 53.5153 117.321 53.419 117.039 53.315C116.874 53.2572 116.72 53.1956 116.562 53.134L116.065 52.9414C115.345 52.6487 114.655 52.3367 113.997 52.0209C113.677 51.863 113.365 51.7128 113.065 51.5472C112.849 51.4393 112.637 51.3238 112.433 51.2082C112.121 51.0349 111.805 50.8577 111.497 50.6729L111.416 50.6228C111.089 50.4225 110.769 50.2377 110.453 50.0104L109.826 49.5868C109.467 49.3403 109.128 49.0938 108.793 48.8396C108.566 48.6663 108.343 48.4814 108.127 48.3081C107.911 48.1348 107.623 47.8883 107.38 47.6764C107.137 47.4646 106.925 47.2913 106.714 47.0794C106.282 46.6943 105.878 46.2745 105.489 45.8624C100.694 40.7861 99.596 35.6867 99.5421 35.4364C104.171 39.3559 109.3 42.6442 114.794 45.2153C118.814 47.093 123.04 48.4967 127.385 49.398C130.171 45.8465 131.995 41.6372 132.682 37.1757C133.37 32.7142 132.896 28.1509 131.307 23.9257C129.719 19.7004 127.069 15.9555 123.612 13.0518C120.156 10.1481 116.01 8.18361 111.574 7.34752C112.344 9.7547 112.834 11.8884 112.834 11.8884L122.774 21.5711L109.806 13.5369C109.806 13.5369 110.808 10.5789 108.42 6.94697C107.149 5.02122 104.888 2.86439 100.994 0.880877C102.884 0.549345 104.791 0.320488 106.706 0.195313C111.037 0.194807 115.326 1.04752 119.327 2.70476C123.329 4.36199 126.965 6.79128 130.028 9.85388C133.09 12.9165 135.519 16.5524 137.177 20.554C138.834 24.5556 139.687 28.8444 139.686 33.1756Z" fill="#F7921E" stroke="#F7921E" stroke-width="0.385149" stroke-miterlimit="10"/>
<path d="M105.738 66.0995C102.877 66.0868 100.032 65.668 97.2879 64.8555L97.1993 64.8324L97.0106 64.7785H96.9644H96.9413C93.5053 63.6369 90.2769 61.946 87.3819 59.7715C74.1983 46.742 88.8609 31.8906 88.8609 31.8906C87.7786 37.3905 88.029 40.2676 88.029 40.2676C88.5374 54.7184 102.341 61.8706 102.341 61.8706C106.716 64.5243 105.811 65.9917 105.738 66.0995Z" fill="#F7921E" stroke="#F7921E" stroke-width="0.385149" stroke-miterlimit="10"/>
<path d="M15.0436 101.816C6.70517 101.816 2.41847 95.9544 2.33374 89.1835C2.29907 82.2508 6.632 76.3118 15.0436 76.3118C16.7123 76.2995 18.3668 76.6178 19.9117 77.2485C21.4566 77.8791 22.8613 78.8096 24.0446 79.9861L25.5852 78.6574C22.7824 75.8775 18.9912 74.3233 15.0436 74.336C5.13762 74.336 0.107579 81.5498 0.18846 89.2759C0.230826 97.0598 5.31094 103.877 15.0436 103.877C18.9875 103.886 22.7737 102.329 25.5698 99.5478L24.0831 98.142C21.6678 100.504 18.4218 101.823 15.0436 101.816Z" fill="#F7921E" stroke="#F7921E" stroke-width="0.385149" stroke-miterlimit="10"/>
<path d="M60.63 92.4887C66.9387 92.4887 70.0353 88.3676 69.9929 83.6572C69.9583 79.1548 66.7769 74.6602 60.5029 74.6602H47.793V103.546H50.023V92.6081H57.9031L67.8939 103.546H70.8249L60.63 92.4887ZM50.023 90.5129V76.7246H60.5029C65.2941 76.7246 67.5973 80.2371 67.5626 83.6226C67.5164 87.6666 65.2941 90.5052 60.2448 90.5052L50.023 90.5129Z" fill="#F7921E" stroke="#F7921E" stroke-width="0.385149" stroke-miterlimit="10"/>
<path d="M90.0046 101.816C81.6661 101.816 77.3717 95.9543 77.2947 89.1834C77.2484 82.2508 81.5814 76.3118 90.0046 76.3118C91.6689 76.3015 93.3187 76.6209 94.859 77.2515C96.3992 77.8821 97.7993 78.8115 98.9785 79.9861L100.519 78.6573C97.7228 75.8844 93.9427 74.3308 90.0046 74.336C80.0908 74.336 75.0569 81.5536 75.1417 89.2797C75.184 97.0751 80.2642 103.881 90.0046 103.881C93.9449 103.886 97.7263 102.327 100.519 99.5478L99.0363 98.142C96.6218 100.5 93.3797 101.819 90.0046 101.816Z" fill="#F7921E" stroke="#F7921E" stroke-width="0.385149" stroke-miterlimit="10"/>
<path d="M126.232 74.6602V92.6158C126.232 104.994 108.488 105.041 108.488 92.6158V74.6602H106.297V92.6158C106.297 107.756 128.416 107.721 128.416 92.6158V74.6602H126.232Z" fill="#F7921E" stroke="#F7921E" stroke-width="0.385149" stroke-miterlimit="10"/>
<path d="M149.191 74.7188V76.6984H159.633V103.57H161.855V76.6792H172.304V74.7188H149.191Z" fill="#F7921E" stroke="#F7921E" stroke-width="0.385149" stroke-miterlimit="10"/>
<path d="M188.448 87.6224C183.576 86.7134 179.62 85.8468 179.62 82.1764C179.62 77.5546 184.981 76.3144 188.371 76.3144C191.625 76.3606 195.011 76.8536 197.121 80.2391L198.935 79.1568C196.085 74.9202 192.499 74.25 188.371 74.25C183.622 74.25 177.271 76.1526 177.394 82.2534C177.394 87.5838 182.786 88.6546 188.082 89.6829C192.823 90.5919 197.614 91.547 197.568 95.8761C197.568 100.991 191.914 101.981 188.371 101.981C184.827 101.981 180.283 100.251 178.507 96.7427L176.527 97.7325C178.754 102.15 183.876 103.995 188.371 103.995C193.204 103.995 199.756 102.427 199.802 95.9069C199.802 89.6829 194.025 88.6931 188.448 87.6224Z" fill="#F7921E" stroke="#F7921E" stroke-width="0.385149" stroke-miterlimit="10"/>
<path d="M35.9532 71.3242C34.9458 71.3269 33.9735 71.6944 33.2161 72.3587C32.4588 73.023 31.9678 73.9391 31.8339 74.9376C31.7 75.936 31.9323 76.9492 32.4878 77.7895C33.0433 78.6299 33.8844 79.2406 34.8555 79.5086V102.725C34.8575 102.944 34.9454 103.154 35.1002 103.309C35.2551 103.464 35.4646 103.551 35.6836 103.553H36.0957C36.3156 103.553 36.5267 103.466 36.6826 103.311C36.8385 103.156 36.9266 102.945 36.9276 102.725V79.5433C37.9196 79.3047 38.7895 78.7105 39.3727 77.8733C39.9558 77.0361 40.2115 76.0141 40.0914 75.0009C39.9713 73.9877 39.4837 73.0538 38.7209 72.3762C37.9582 71.6985 36.9734 71.3242 35.9532 71.3242ZM35.9532 77.8332C35.4892 77.8325 35.036 77.6942 34.6507 77.4358C34.2654 77.1774 33.9654 76.8106 33.7885 76.3817C33.6117 75.9528 33.566 75.4812 33.6573 75.0263C33.7485 74.5715 33.9726 74.1539 34.3012 73.8264C34.6297 73.4989 35.0481 73.2762 35.5032 73.1864C35.9583 73.0967 36.4299 73.1439 36.8582 73.3221C37.2865 73.5004 37.6523 73.8016 37.9094 74.1878C38.1665 74.5739 38.3033 75.0276 38.3026 75.4915C38.3005 76.1113 38.0537 76.7052 37.6158 77.1438C37.1779 77.5824 36.5845 77.8302 35.9647 77.8332H35.9532Z" fill="#F7921E" stroke="#F7921E" stroke-width="0.385149" stroke-miterlimit="10"/>
<path d="M137.836 71.3242C136.827 71.3232 135.852 71.688 135.092 72.3511C134.332 73.0142 133.838 73.9304 133.702 74.9299C133.566 75.9294 133.797 76.9443 134.353 77.7863C134.908 78.6283 135.75 79.2403 136.723 79.5086V102.725C136.725 102.944 136.813 103.154 136.967 103.309C137.122 103.464 137.332 103.551 137.551 103.553H137.963C138.182 103.552 138.392 103.465 138.547 103.31C138.702 103.155 138.79 102.945 138.791 102.725V79.5433C139.783 79.3048 140.652 78.7109 141.235 77.8741C141.819 77.0373 142.075 76.0157 141.955 75.0028C141.835 73.9899 141.348 73.0561 140.586 72.3781C139.824 71.7002 138.84 71.3252 137.82 71.3242H137.836ZM137.836 77.8332C137.372 77.8317 136.919 77.6928 136.534 77.4339C136.15 77.1751 135.85 76.808 135.674 76.3791C135.498 75.9501 135.452 75.4786 135.544 75.024C135.636 74.5694 135.86 74.1522 136.189 73.8251C136.518 73.498 136.936 73.2756 137.391 73.1862C137.846 73.0967 138.317 73.1442 138.745 73.3225C139.174 73.5009 139.539 73.8021 139.796 74.1882C140.053 74.5742 140.19 75.0278 140.189 75.4915C140.186 76.1123 139.938 76.7068 139.498 77.1454C139.059 77.584 138.464 77.8312 137.843 77.8332H137.836Z" fill="#F7921E" stroke="#F7921E" stroke-width="0.385149" stroke-miterlimit="10"/>
</g>
<defs>
<linearGradient id="paint0_linear_1867_11792" x1="73.747" y1="31.4237" x2="73.7894" y2="31.4237" gradientUnits="userSpaceOnUse">
<stop stop-color="#EF6111"/>
<stop offset="1" stop-color="#F7921E"/>
</linearGradient>
<linearGradient id="paint1_linear_1867_11792" x1="73.943" y1="28.8564" x2="74.0662" y2="28.8564" gradientUnits="userSpaceOnUse">
<stop stop-color="#EF6111"/>
<stop offset="1" stop-color="#F7921E"/>
</linearGradient>
<linearGradient id="paint2_linear_1867_11792" x1="101.172" y1="5.6931" x2="101.881" y2="5.6931" gradientUnits="userSpaceOnUse">
<stop stop-color="#EF6111"/>
<stop offset="1" stop-color="#F7921E"/>
</linearGradient>
<linearGradient id="paint3_linear_1867_11792" x1="113.289" y1="65.3835" x2="115.273" y2="65.3835" gradientUnits="userSpaceOnUse">
<stop stop-color="#EF6111"/>
<stop offset="1" stop-color="#F7921E"/>
</linearGradient>
<linearGradient id="paint4_linear_1867_11792" x1="113.986" y1="32.4796" x2="130.663" y2="32.4796" gradientUnits="userSpaceOnUse">
<stop stop-color="#EF6111"/>
<stop offset="1" stop-color="#F7921E"/>
</linearGradient>
<linearGradient id="paint5_linear_1867_11792" x1="108.336" y1="21.5772" x2="114.387" y2="21.5772" gradientUnits="userSpaceOnUse">
<stop stop-color="#EF6111"/>
<stop offset="1" stop-color="#F7921E"/>
</linearGradient>
<clipPath id="clip0_1867_11792">
<rect width="200" height="104.194" fill="white"/>
</clipPath>
</defs>
</svg>
